<svg width="49" height="48" viewBox="0 0 49 48" fill="none" xmlns="http://www.w3.org/2000/svg">
<rect x="0.604248" width="47.7411" height="47.7411" rx="23.8705" fill="white"/>
<path fill-rule="evenodd" clip-rule="evenodd" d="M32.4316 31.8268H29.2489V26.2578C29.2489 24.7301 28.575 23.8779 27.3663 23.8779C26.0511 23.8779 25.2705 24.7659 25.2705 26.2578V31.8268H22.0877V21.4829H25.2705V22.6462C25.2705 22.6462 26.2691 20.8941 28.5193 20.8941C30.7703 20.8941 32.4316 22.2674 32.4316 25.1096V31.8268ZM18.461 19.8286C18.2048 19.8277 17.9514 19.7763 17.7151 19.6774C17.4788 19.5785 17.2643 19.4339 17.0838 19.2521C16.9034 19.0703 16.7605 18.8546 16.6634 18.6176C16.5663 18.3805 16.5169 18.1266 16.518 17.8705C16.517 17.6144 16.5665 17.3606 16.6637 17.1236C16.7608 16.8866 16.9037 16.6711 17.0841 16.4894C17.2645 16.3076 17.479 16.1632 17.7152 16.0643C17.9515 15.9654 18.2049 15.914 18.461 15.9131C18.9781 15.9152 19.4732 16.1226 19.8374 16.4896C20.2017 16.8567 20.4052 17.3534 20.4033 17.8705C20.4044 18.1266 20.3551 18.3805 20.2581 18.6175C20.1611 18.8546 20.0183 19.0702 19.8379 19.2521C19.6576 19.4339 19.4431 19.5784 19.2069 19.6774C18.9706 19.7763 18.7172 19.8277 18.461 19.8286ZM16.518 31.8268H20.4964V21.4829H16.518V31.8268Z" fill="#181818"/>
</svg>
