<svg width="20" height="20" viewBox="0 0 20 20" fill="none" xmlns="http://www.w3.org/2000/svg">
<path d="M13.96 18.4002C13.056 18.4002 12.104 18.1842 11.12 17.7682C10.16 17.3602 9.192 16.8002 8.248 16.1202C7.312 15.4322 6.408 14.6642 5.552 13.8242C4.704 12.9682 3.936 12.0642 3.256 11.1362C2.568 10.1762 2.016 9.2162 1.624 8.2882C1.208 7.2962 1 6.3362 1 5.4322C1 4.8082 1.112 4.2162 1.328 3.6642C1.552 3.0962 1.912 2.5682 2.4 2.1122C3.016 1.5042 3.72 1.2002 4.472 1.2002C4.784 1.2002 5.104 1.2722 5.376 1.4002C5.688 1.5442 5.952 1.7602 6.144 2.0482L8 4.6642C8.168 4.8962 8.296 5.1202 8.384 5.3442C8.488 5.5842 8.544 5.8242 8.544 6.0562C8.544 6.3602 8.456 6.6562 8.288 6.9362C8.168 7.1522 7.984 7.3842 7.752 7.6162L7.208 8.1842C7.216 8.2082 7.224 8.2242 7.232 8.2402C7.328 8.4082 7.52 8.6962 7.888 9.1282C8.28 9.5762 8.648 9.9842 9.016 10.3602C9.488 10.8242 9.88 11.1922 10.248 11.4962C10.704 11.8802 11 12.0722 11.176 12.1602L11.16 12.2002L11.744 11.6242C11.992 11.3762 12.232 11.1922 12.464 11.0722C12.904 10.8002 13.464 10.7522 14.024 10.9842C14.232 11.0722 14.456 11.1922 14.696 11.3602L17.352 13.2482C17.648 13.4482 17.864 13.7042 17.992 14.0082C18.112 14.3122 18.168 14.5922 18.168 14.8722C18.168 15.2562 18.08 15.6402 17.912 16.0002C17.744 16.3602 17.536 16.6722 17.272 16.9602C16.816 17.4642 16.32 17.8242 15.744 18.0562C15.192 18.2802 14.592 18.4002 13.96 18.4002ZM4.472 2.4002C4.032 2.4002 3.624 2.5922 3.232 2.9762C2.864 3.3202 2.608 3.6962 2.448 4.1042C2.28 4.5202 2.2 4.9602 2.2 5.4322C2.2 6.1762 2.376 6.9842 2.728 7.8162C3.088 8.6642 3.592 9.5442 4.232 10.4242C4.872 11.3042 5.6 12.1602 6.4 12.9682C7.2 13.7602 8.064 14.4962 8.952 15.1442C9.816 15.7762 10.704 16.2882 11.584 16.6562C12.952 17.2402 14.232 17.3762 15.288 16.9362C15.696 16.7682 16.056 16.5122 16.384 16.1442C16.568 15.9442 16.712 15.7282 16.832 15.4722C16.928 15.2722 16.976 15.0642 16.976 14.8562C16.976 14.7282 16.952 14.6002 16.888 14.4562C16.864 14.4082 16.816 14.3202 16.664 14.2162L14.008 12.3282C13.848 12.2162 13.704 12.1362 13.568 12.0802C13.392 12.0082 13.32 11.9362 13.048 12.1042C12.888 12.1842 12.744 12.3042 12.584 12.4642L11.976 13.0642C11.664 13.3682 11.184 13.4402 10.816 13.3042L10.6 13.2082C10.272 13.0322 9.888 12.7602 9.464 12.4002C9.08 12.0722 8.664 11.6882 8.16 11.1922C7.768 10.7922 7.376 10.3682 6.968 9.8962C6.592 9.4562 6.32 9.0802 6.152 8.7682L6.056 8.5282C6.008 8.3442 5.992 8.2402 5.992 8.1282C5.992 7.8402 6.096 7.5842 6.296 7.3842L6.896 6.7602C7.056 6.6002 7.176 6.4482 7.256 6.3122C7.32 6.2082 7.344 6.1202 7.344 6.0402C7.344 5.9762 7.32 5.8802 7.28 5.7842C7.224 5.6562 7.136 5.5122 7.024 5.3602L5.168 2.7362C5.088 2.6242 4.992 2.5442 4.872 2.4882C4.744 2.4322 4.608 2.4002 4.472 2.4002ZM11.16 12.2082L11.032 12.7522L11.248 12.1922C11.208 12.1842 11.176 12.1922 11.16 12.2082Z" fill="#0048B4"/>
</svg>
