<svg width="41" height="40" viewBox="0 0 41 40" fill="none" xmlns="http://www.w3.org/2000/svg">
<rect x="1" y="0.5" width="39" height="39" rx="19.5" stroke="#DCDCDC"/>
<path fill-rule="evenodd" clip-rule="evenodd" d="M16.3 13C15.5268 13 14.9 13.6268 14.9 14.4V16.7017C14.2613 16.4743 13.5 16.9275 13.5 17.695V24.9C13.5 26.0598 14.4402 27 15.6 27H25.4C26.5598 27 27.5 26.0598 27.5 24.9V17.695C27.5 16.9275 26.7387 16.4743 26.1 16.7017V14.4C26.1 13.6268 25.4732 13 24.7 13H16.3ZM24.7023 17.9577C24.7008 17.9387 24.7 17.9194 24.7 17.9L24.7 14.4H16.3V17.9C16.3 17.9194 16.2992 17.9387 16.2977 17.9577L19.5101 21.1701C20.0568 21.7168 20.9432 21.7168 21.4899 21.1701L24.7023 17.9577ZM14.9 24.9V18.5399L18.5201 22.1601C19.6136 23.2535 21.3864 23.2535 22.4799 22.1601L26.1 18.5399V24.9C26.1 25.2866 25.7866 25.6 25.4 25.6H15.6C15.2134 25.6 14.9 25.2866 14.9 24.9Z" fill="#0048B4"/>
</svg>
