<svg width="48" height="48" viewBox="0 0 48 48" fill="none" xmlns="http://www.w3.org/2000/svg">
<rect x="0.258911" width="47.7411" height="47.7411" rx="23.8705" fill="white"/>
<path d="M24.1294 27.3519C26.052 27.3519 27.6106 25.7933 27.6106 23.8708C27.6106 21.9482 26.052 20.3896 24.1294 20.3896C22.2069 20.3896 20.6483 21.9482 20.6483 23.8708C20.6483 25.7933 22.2069 27.3519 24.1294 27.3519Z" stroke="#181818" stroke-width="1.49191" stroke-miterlimit="10" stroke-linecap="round" stroke-linejoin="round"/>
<path d="M33.0809 24.3969C33.0809 30.3353 31.0917 32.8218 24.1294 32.8218C17.1672 32.8218 15.178 30.8326 15.178 23.8704C15.178 17.4055 17.1672 14.9189 24.1294 14.9189C31.589 14.9189 33.0809 17.4055 33.0809 24.3969Z" stroke="#181818" stroke-width="1.49191" stroke-linecap="round" stroke-linejoin="round"/>
<path d="M28.6052 19.395C28.8799 19.395 29.1025 19.1723 29.1025 18.8977C29.1025 18.623 28.8799 18.4004 28.6052 18.4004C28.3306 18.4004 28.1079 18.623 28.1079 18.8977C28.1079 19.1723 28.3306 19.395 28.6052 19.395Z" fill="#181818" stroke="#181818" stroke-width="1.49191" stroke-linecap="round" stroke-linejoin="round"/>
</svg>
