<svg width="33" height="33" viewBox="0 0 33 33" fill="none" xmlns="http://www.w3.org/2000/svg">
<rect x="0.956787" y="0.957031" width="31.8274" height="31.8274" rx="15.9137" fill="#181818"/>
<rect x="1.20544" y="1.20568" width="31.3301" height="31.3301" rx="15.665" stroke="black" stroke-opacity="0.1" stroke-width="0.497303"/>
<path d="M20.4842 23.9992C19.7349 23.9992 18.9458 23.8201 18.1303 23.4753C17.3346 23.1372 16.5323 22.673 15.7498 22.1094C14.9741 21.5392 14.2248 20.9026 13.5153 20.2064C12.8124 19.4969 12.1759 18.7477 11.6123 17.9785C11.042 17.1828 10.5845 16.3871 10.2596 15.618C9.91483 14.7958 9.74243 14.0001 9.74243 13.2508C9.74243 12.7336 9.83526 12.2429 10.0143 11.7854C10.2 11.3146 10.4983 10.877 10.9028 10.4991C11.4134 9.99513 11.9969 9.74316 12.6202 9.74316C12.8788 9.74316 13.144 9.80284 13.3694 9.90893C13.628 10.0283 13.8468 10.2073 14.006 10.446L15.5443 12.6143C15.6835 12.8065 15.7896 12.9922 15.8626 13.1779C15.9488 13.3768 15.9952 13.5757 15.9952 13.768C15.9952 14.02 15.9222 14.2653 15.783 14.4974C15.6835 14.6764 15.531 14.8687 15.3387 15.061L14.8879 15.5318C14.8945 15.5517 14.9011 15.5649 14.9077 15.5782C14.9873 15.7174 15.1465 15.9561 15.4515 16.3142C15.7764 16.6855 16.0814 17.0237 16.3864 17.3353C16.7776 17.7199 17.1025 18.0249 17.4075 18.2769C17.7855 18.5952 18.0308 18.7543 18.1767 18.8272L18.1634 18.8604L18.6475 18.383C18.853 18.1774 19.0519 18.0249 19.2442 17.9255C19.6089 17.7 20.0731 17.6602 20.5372 17.8525C20.7096 17.9255 20.8953 18.0249 21.0942 18.1642L23.2956 19.729C23.5409 19.8948 23.72 20.107 23.826 20.3589C23.9255 20.6109 23.9719 20.843 23.9719 21.075C23.9719 21.3933 23.899 21.7116 23.7597 22.01C23.6205 22.3083 23.4481 22.5669 23.2293 22.8056C22.8513 23.2234 22.4402 23.5218 21.9628 23.7141C21.5053 23.8997 21.008 23.9992 20.4842 23.9992ZM12.6202 10.7378C12.2555 10.7378 11.9173 10.8969 11.5924 11.2152C11.2874 11.5003 11.0752 11.8119 10.9426 12.1501C10.8033 12.4949 10.737 12.8596 10.737 13.2508C10.737 13.8675 10.8829 14.5372 11.1747 15.2268C11.473 15.9296 11.8908 16.659 12.4212 17.3884C12.9517 18.1177 13.5551 18.8272 14.2182 19.4969C14.8812 20.1534 15.5973 20.7634 16.3333 21.3005C17.0495 21.8243 17.7855 22.2487 18.5149 22.5537C19.6487 23.0377 20.7096 23.1504 21.5849 22.7858C21.923 22.6465 22.2214 22.4343 22.4933 22.1293C22.6458 21.9635 22.7651 21.7845 22.8646 21.5723C22.9442 21.4066 22.9839 21.2342 22.9839 21.0618C22.9839 20.9557 22.9641 20.8496 22.911 20.7302C22.8911 20.6905 22.8513 20.6175 22.7253 20.5313L20.524 18.9665C20.3913 18.8736 20.272 18.8073 20.1593 18.7609C20.0134 18.7012 19.9537 18.6416 19.7283 18.7808C19.5957 18.8471 19.4763 18.9466 19.3437 19.0792L18.8398 19.5765C18.5812 19.8285 18.1833 19.8881 17.8783 19.7754L17.6993 19.6958C17.4274 19.55 17.1091 19.3245 16.7577 19.0261C16.4394 18.7543 16.0946 18.436 15.6769 18.0249C15.352 17.6934 15.0271 17.3419 14.6889 16.9507C14.3773 16.586 14.1518 16.2744 14.0126 16.0158L13.933 15.8169C13.8933 15.6644 13.88 15.5782 13.88 15.4854C13.88 15.2466 13.9662 15.0345 14.132 14.8687L14.6293 14.3515C14.7619 14.2189 14.8613 14.0929 14.9276 13.9802C14.9807 13.894 15.0006 13.821 15.0006 13.7547C15.0006 13.7017 14.9807 13.6221 14.9475 13.5426C14.9011 13.4365 14.8282 13.3171 14.7354 13.1911L13.197 11.0163C13.1307 10.9234 13.0512 10.8571 12.9517 10.8107C12.8456 10.7643 12.7329 10.7378 12.6202 10.7378ZM18.1634 18.867L18.0573 19.3179L18.2364 18.8537C18.2032 18.8471 18.1767 18.8537 18.1634 18.867Z" fill="white"/>
</svg>
