<svg width="41" height="40" viewBox="0 0 41 40" fill="none" xmlns="http://www.w3.org/2000/svg">
<rect x="1" y="0.5" width="39" height="39" rx="19.5" stroke="#181818" stroke-opacity="0.05"/>
<path d="M24.1334 27.1663C23.38 27.1663 22.5867 26.9863 21.7667 26.6397C20.9667 26.2997 20.16 25.833 19.3734 25.2663C18.5934 24.693 17.84 24.053 17.1267 23.353C16.42 22.6397 15.78 21.8863 15.2134 21.113C14.64 20.313 14.18 19.513 13.8534 18.7397C13.5067 17.913 13.3334 17.113 13.3334 16.3597C13.3334 15.8397 13.4267 15.3463 13.6067 14.8863C13.7934 14.413 14.0934 13.973 14.5 13.593C15.0134 13.0863 15.6 12.833 16.2267 12.833C16.4867 12.833 16.7534 12.893 16.98 12.9997C17.24 13.1197 17.46 13.2997 17.62 13.5397L19.1667 15.7197C19.3067 15.913 19.4134 16.0997 19.4867 16.2863C19.5734 16.4863 19.62 16.6863 19.62 16.8797C19.62 17.133 19.5467 17.3797 19.4067 17.613C19.3067 17.793 19.1534 17.9863 18.96 18.1797L18.5067 18.653C18.5134 18.673 18.52 18.6863 18.5267 18.6997C18.6067 18.8397 18.7667 19.0797 19.0734 19.4397C19.4 19.813 19.7067 20.153 20.0134 20.4663C20.4067 20.853 20.7334 21.1597 21.04 21.413C21.42 21.733 21.6667 21.893 21.8134 21.9663L21.8 21.9997L22.2867 21.5197C22.4934 21.313 22.6934 21.1597 22.8867 21.0597C23.2534 20.833 23.72 20.793 24.1867 20.9863C24.36 21.0597 24.5467 21.1597 24.7467 21.2997L26.96 22.873C27.2067 23.0397 27.3867 23.253 27.4934 23.5063C27.5934 23.7597 27.64 23.993 27.64 24.2263C27.64 24.5463 27.5667 24.8663 27.4267 25.1663C27.2867 25.4663 27.1134 25.7263 26.8934 25.9663C26.5134 26.3863 26.1 26.6863 25.62 26.8797C25.16 27.0663 24.66 27.1663 24.1334 27.1663ZM16.2267 13.833C15.86 13.833 15.52 13.993 15.1934 14.313C14.8867 14.5997 14.6734 14.913 14.54 15.253C14.4 15.5997 14.3334 15.9663 14.3334 16.3597C14.3334 16.9797 14.48 17.653 14.7734 18.3463C15.0734 19.053 15.4934 19.7863 16.0267 20.5197C16.56 21.253 17.1667 21.9663 17.8334 22.6397C18.5 23.2997 19.22 23.913 19.96 24.453C20.68 24.9797 21.42 25.4063 22.1534 25.713C23.2934 26.1997 24.36 26.313 25.24 25.9463C25.58 25.8063 25.88 25.593 26.1534 25.2863C26.3067 25.1197 26.4267 24.9397 26.5267 24.7263C26.6067 24.5597 26.6467 24.3863 26.6467 24.213C26.6467 24.1063 26.6267 23.9997 26.5734 23.8797C26.5534 23.8397 26.5134 23.7663 26.3867 23.6797L24.1734 22.1063C24.04 22.013 23.92 21.9463 23.8067 21.8997C23.66 21.8397 23.6 21.7797 23.3734 21.9197C23.24 21.9863 23.12 22.0863 22.9867 22.2197L22.48 22.7197C22.22 22.973 21.82 23.033 21.5134 22.9197L21.3334 22.8397C21.06 22.693 20.74 22.4663 20.3867 22.1663C20.0667 21.893 19.72 21.573 19.3 21.1597C18.9734 20.8263 18.6467 20.473 18.3067 20.0797C17.9934 19.713 17.7667 19.3997 17.6267 19.1397L17.5467 18.9397C17.5067 18.7863 17.4934 18.6997 17.4934 18.6063C17.4934 18.3663 17.58 18.153 17.7467 17.9863L18.2467 17.4663C18.38 17.333 18.48 17.2063 18.5467 17.093C18.6 17.0063 18.62 16.933 18.62 16.8663C18.62 16.813 18.6 16.733 18.5667 16.653C18.52 16.5463 18.4467 16.4263 18.3534 16.2997L16.8067 14.113C16.74 14.0197 16.66 13.953 16.56 13.9063C16.4534 13.8597 16.34 13.833 16.2267 13.833ZM21.8 22.0063L21.6934 22.4597L21.8734 21.993C21.84 21.9863 21.8134 21.993 21.8 22.0063Z" fill="#0048B4"/>
</svg>
