<svg width="83" height="81" viewBox="0 0 83 81" fill="none" xmlns="http://www.w3.org/2000/svg">
<rect x="82.3538" y="79.9405" width="81.1433" height="79.1397" rx="39.5699" transform="rotate(-180 82.3538 79.9405)" fill="#FBF9FF"/>
<rect x="82.3538" y="79.9405" width="81.1433" height="79.1397" rx="39.5699" transform="rotate(-180 82.3538 79.9405)" stroke="#D9D9D9" stroke-width="1.00177"/>
<path d="M54.9141 41.9931C55.81 41.9931 56.5362 41.2669 56.5362 40.3711C56.5362 39.4753 55.81 38.749 54.9141 38.749L54.9141 40.3711L54.9141 41.9931ZM27.5032 39.2241C26.8698 39.8576 26.8698 40.8846 27.5032 41.5181L37.8259 51.8407C38.4593 52.4742 39.4863 52.4742 40.1198 51.8407C40.7532 51.2073 40.7532 50.1802 40.1198 49.5468L30.9441 40.3711L40.1198 31.1954C40.7532 30.562 40.7532 29.5349 40.1198 28.9015C39.4863 28.268 38.4593 28.268 37.8259 28.9015L27.5032 39.2241ZM54.9141 40.3711L54.9141 38.749L28.6502 38.749L28.6502 40.3711L28.6502 41.9931L54.9141 41.9931L54.9141 40.3711Z" fill="#363636"/>
</svg>
