<svg width="22" height="22" viewBox="0 0 22 22" fill="none" xmlns="http://www.w3.org/2000/svg">
<path fill-rule="evenodd" clip-rule="evenodd" d="M1.10004 5.4002C1.10004 3.90903 2.30887 2.7002 3.80004 2.7002H18.2C19.6912 2.7002 20.9 3.90903 20.9 5.4002V16.2002C20.9 17.6914 19.6912 18.9002 18.2 18.9002H3.80004C2.30887 18.9002 1.10004 17.6914 1.10004 16.2002V5.4002ZM3.80004 4.5002C3.30298 4.5002 2.90004 4.90314 2.90004 5.4002V6.69062L11 11.5506L19.1 6.69062V5.4002C19.1 4.90314 18.6971 4.5002 18.2 4.5002H3.80004ZM19.1 8.78977L11.9261 13.0941C11.3561 13.4361 10.644 13.4361 10.0739 13.0941L2.90004 8.78977V16.2002C2.90004 16.6973 3.30298 17.1002 3.80004 17.1002H18.2C18.6971 17.1002 19.1 16.6973 19.1 16.2002V8.78977Z" fill="#181818"/>
</svg>
