<svg width="19" height="18" viewBox="0 0 19 18" fill="none" xmlns="http://www.w3.org/2000/svg">
<path fill-rule="evenodd" clip-rule="evenodd" d="M7.12529 0.610679C6.66183 0.212151 6.06963 -0.00474792 5.45853 7.88578e-05L3.02307 7.92334e-05C1.55316 0.00146337 0.378918 1.30247 0.510005 2.75293L0.511385 2.76697C1.35244 10.6861 7.83827 17.1313 15.6966 17.9851L15.7128 17.9867C16.4751 18.0556 17.1393 17.857 17.6313 17.3732C18.0874 16.9247 18.2905 16.3316 18.3899 15.8156C18.4912 15.2895 18.505 14.7327 18.4987 14.2541C18.4957 14.0222 18.4876 13.7972 18.4804 13.5966L18.4795 13.5694C18.472 13.3608 18.4661 13.1858 18.4658 13.0361C18.478 12.4213 18.2653 11.8229 17.8676 11.3536C17.5822 11.0168 17.1754 10.7621 16.7905 10.5727C16.3888 10.3749 15.9314 10.2099 15.4735 10.0839C14.5981 9.84292 13.5455 9.69706 12.7848 9.85928C12.1608 9.99235 11.6873 10.3596 11.3457 10.6818C11.2136 10.8065 11.0897 10.9357 10.9775 11.0565C9.55031 10.1309 8.33407 8.91484 7.4084 7.4878C7.52896 7.37587 7.65808 7.25221 7.78258 7.1203C8.105 6.77869 8.47239 6.30505 8.60557 5.68067C8.75516 4.97932 8.62786 3.94671 8.40049 3.07083C8.28122 2.61135 8.12183 2.1452 7.92406 1.73097C7.73332 1.33143 7.47454 0.911009 7.12529 0.610679ZM5.47133 1.80005C5.64745 1.79832 5.81818 1.86068 5.9517 1.97549C6.02715 2.04037 6.15539 2.20422 6.2997 2.50648C6.43698 2.79405 6.56068 3.14724 6.65825 3.5231C6.86457 4.31791 6.906 5.02001 6.84518 5.30518C6.81396 5.45154 6.71154 5.63265 6.47357 5.88478C6.35806 6.00715 6.22799 6.12871 6.07973 6.26436L6.01849 6.32028C5.89253 6.43521 5.75115 6.56419 5.62271 6.69262C5.33619 6.97912 5.27643 7.42175 5.47673 7.77397C6.71395 9.94959 8.51552 11.751 10.6913 12.988C11.0435 13.1883 11.4861 13.1285 11.7725 12.8421C11.9009 12.7137 12.0299 12.5724 12.1449 12.4465L12.2011 12.385C12.3368 12.2367 12.4584 12.1066 12.5809 11.9911C12.8332 11.7531 13.0142 11.6509 13.1602 11.6197C13.4945 11.5484 14.2092 11.6028 14.9958 11.8193C15.3688 11.922 15.7161 12.0501 15.9956 12.1876C16.2918 12.3334 16.4427 12.4563 16.4943 12.5173C16.6094 12.653 16.6705 12.8263 16.6661 13.0042C16.6659 13.0117 16.6658 13.0191 16.6658 13.0265C16.6658 13.2163 16.6733 13.4276 16.6806 13.6337L16.6814 13.6549C16.6887 13.8597 16.6961 14.0668 16.6989 14.2776C16.7047 14.72 16.6886 15.1311 16.6224 15.4752C16.5542 15.8293 16.4519 16.0085 16.3692 16.0898C16.3228 16.1355 16.2158 16.2234 15.8822 16.1947C8.86825 15.4283 3.0568 9.65142 2.30221 2.58529C2.26955 2.18449 2.61958 1.80065 3.02449 1.80009L5.46247 1.80014L5.47133 1.80005Z" fill="#0048B4"/>
<path d="M13.1 0.900007C12.6029 0.900007 12.2 1.30295 12.2 1.80001C12.2 2.29708 12.6029 2.70002 13.1 2.70002H14.5272L11.5636 5.66365C11.2121 6.01512 11.2121 6.58498 11.5636 6.93645C11.915 7.28793 12.4849 7.28793 12.8363 6.93645L15.7999 3.97282V5.40004C15.7999 5.8971 16.2029 6.30005 16.6999 6.30005C17.197 6.30005 17.5999 5.8971 17.5999 5.40004V1.80001C17.5999 1.30295 17.197 0.900007 16.6999 0.900007H13.1Z" fill="#0048B4"/>
</svg>
