<svg width="17" height="20" viewBox="0 0 17 20" fill="none" xmlns="http://www.w3.org/2000/svg">
<path d="M8.5 8.0001C9.60457 8.0001 10.5 7.10467 10.5 6.0001C10.5 4.89553 9.60457 4.0001 8.5 4.0001C7.39543 4.0001 6.5 4.89553 6.5 6.0001C6.5 7.10467 7.39543 8.0001 8.5 8.0001Z" fill="#0048B4"/>
<path fill-rule="evenodd" clip-rule="evenodd" d="M7.91823 19.8135C7.91851 19.8137 7.91876 19.8138 8.5 19.0001L7.91823 19.8135C8.26593 20.0618 8.73354 20.0622 9.08124 19.8138L8.5 19.0001C9.08124 19.8138 9.08096 19.814 9.08124 19.8138L9.08246 19.813L9.08433 19.8116L9.08996 19.8076L9.1087 19.794C9.12445 19.7825 9.14668 19.7662 9.17494 19.7452C9.23145 19.7032 9.31216 19.6424 9.4136 19.5638C9.6164 19.4065 9.90264 19.1774 10.2445 18.8844C10.9269 18.2994 11.8384 17.4534 12.7526 16.4086C14.5509 14.3533 16.5 11.3699 16.5 8.0001C16.5 3.58182 12.9183 9.91821e-05 8.5 9.91821e-05C4.08172 9.91821e-05 0.5 3.58182 0.5 8.0001C0.5 11.3699 2.44905 14.3533 4.24742 16.4086C5.16162 17.4534 6.07307 18.2994 6.75546 18.8844C7.09736 19.1774 7.3836 19.4065 7.5864 19.5638C7.68784 19.6424 7.76855 19.7032 7.82506 19.7452C7.85332 19.7662 7.87555 19.7825 7.8913 19.794L7.91004 19.8076L7.91567 19.8116L7.91823 19.8135ZM2.5 8.0001C2.5 4.68639 5.18629 2.0001 8.5 2.0001C11.8137 2.0001 14.5 4.68639 14.5 8.0001C14.5 10.6303 12.9491 13.1469 11.2474 15.0916C10.4116 16.0468 9.57307 16.8257 8.94296 17.3658C8.77953 17.5059 8.63061 17.6295 8.5 17.7355C8.36939 17.6295 8.22047 17.5059 8.05704 17.3658C7.42693 16.8257 6.58838 16.0468 5.75258 15.0916C4.05095 13.1469 2.5 10.6303 2.5 8.0001Z" fill="#0048B4"/>
</svg>
