<svg width="21" height="16" viewBox="0 0 21 16" fill="none" xmlns="http://www.w3.org/2000/svg">
<path fill-rule="evenodd" clip-rule="evenodd" d="M3.5 0C1.84315 0 0.5 1.34315 0.5 3V13C0.5 14.6569 1.84315 16 3.5 16H17.5C19.1569 16 20.5 14.6569 20.5 13V3C20.5 1.34315 19.1569 0 17.5 0H3.5ZM3.41756 2.00335C3.44475 2.00113 3.47224 2 3.5 2H17.5C17.5278 2 17.5553 2.00113 17.5824 2.00335L11.9142 7.67157C11.1332 8.45262 9.86683 8.45262 9.08579 7.67157L3.41756 2.00335ZM2.5 3.91421V13C2.5 13.5523 2.94772 14 3.5 14H17.5C18.0523 14 18.5 13.5523 18.5 13V3.91421L13.3284 9.08579C11.7663 10.6479 9.23367 10.6479 7.67157 9.08579L2.5 3.91421Z" fill="#0048B4"/>
</svg>
