<svg width="20" height="20" viewBox="0 0 20 20" fill="none" xmlns="http://www.w3.org/2000/svg">
<path fill-rule="evenodd" clip-rule="evenodd" d="M7.36146 0.678603C6.84651 0.235798 6.1885 -0.00519913 5.5095 0.000163913L2.80343 0.00016433C1.17018 0.00170225 -0.134536 1.44726 0.0111167 3.05886L0.01265 3.07446C0.947156 11.8735 8.15367 19.0347 16.8852 19.9834L16.9032 19.9852C17.7502 20.0617 18.4882 19.8411 19.0349 19.3035C19.5417 18.8051 19.7673 18.1461 19.8777 17.5728C19.9903 16.9883 20.0056 16.3697 19.9987 15.8378C19.9953 15.5802 19.9863 15.3301 19.9784 15.1073L19.9773 15.077C19.969 14.8453 19.9624 14.6508 19.9621 14.4845C19.9756 13.8014 19.7393 13.1366 19.2974 12.615C18.9803 12.2409 18.5283 11.9579 18.1006 11.7474C17.6543 11.5277 17.146 11.3443 16.6372 11.2043C15.6646 10.9366 14.4951 10.7745 13.6498 10.9547C12.9565 11.1026 12.4304 11.5106 12.0508 11.8686C11.904 12.0071 11.7664 12.1508 11.6418 12.285C10.0559 11.2566 8.70456 9.90538 7.67603 8.31978C7.80999 8.19542 7.95345 8.05802 8.09178 7.91145C8.45003 7.5319 8.85825 7.00563 9.00622 6.31188C9.17244 5.5326 9.03099 4.38527 8.77836 3.41208C8.64583 2.90155 8.46873 2.38362 8.24899 1.92336C8.03705 1.47943 7.74952 1.0123 7.36146 0.678603ZM5.52372 2.00012C5.71942 1.99819 5.90912 2.06748 6.05747 2.19505C6.1413 2.26714 6.28379 2.44919 6.44413 2.78503C6.59668 3.10455 6.73411 3.49698 6.84252 3.91461C7.07177 4.79772 7.11781 5.57782 7.05022 5.89468C7.01554 6.05729 6.90174 6.25853 6.63733 6.53866C6.50899 6.67464 6.36446 6.8097 6.19972 6.96042L6.13168 7.02255C5.99172 7.15025 5.83464 7.29356 5.69192 7.43626C5.37356 7.75459 5.30717 8.2464 5.52972 8.63775C6.90442 11.0551 8.90617 13.0566 11.3238 14.4311C11.7151 14.6536 12.2068 14.5872 12.5251 14.269C12.6678 14.1263 12.8111 13.9693 12.9388 13.8294L13.0012 13.7611C13.1521 13.5963 13.2872 13.4518 13.4232 13.3235C13.7036 13.059 13.9047 12.9454 14.0669 12.9108C14.4384 12.8316 15.2325 12.892 16.1065 13.1326C16.521 13.2467 16.9068 13.3889 17.2174 13.5418C17.5465 13.7038 17.7142 13.8403 17.7716 13.908C17.8994 14.0589 17.9673 14.2515 17.9624 14.4491C17.9622 14.4574 17.9621 14.4656 17.9621 14.4739C17.9621 14.6848 17.9704 14.9195 17.9786 15.1485L17.9794 15.1721C17.9875 15.3996 17.9958 15.6297 17.9988 15.8639C18.0053 16.3555 17.9874 16.8123 17.9138 17.1946C17.838 17.588 17.7245 17.7871 17.6326 17.8775C17.5809 17.9283 17.4621 18.0259 17.0914 17.994C9.29809 17.1425 2.84089 10.7238 2.00246 2.8726C1.96617 2.42727 2.3551 2.00078 2.805 2.00016L5.51388 2.00021L5.52372 2.00012Z" fill="#FDFDFD"/>
<path d="M14 1.00008C13.4477 1.00008 13 1.44779 13 2.00008C13 2.55236 13.4477 3.00008 14 3.00008H15.5858L12.2929 6.29297C11.9024 6.68349 11.9024 7.31666 12.2929 7.70718C12.6834 8.09771 13.3166 8.09771 13.7071 7.70718L17 4.41429V6.00008C17 6.55236 17.4477 7.00008 18 7.00008C18.5523 7.00008 19 6.55236 19 6.00008V2.00008C19 1.44779 18.5523 1.00008 18 1.00008H14Z" fill="#FDFDFD"/>
</svg>
